Coordinates
version=1
nRows=43
nColumns=12
inDegrees=yes

Units are S.I. units (second, meters, Newtons, ...)
Angles are in degrees

endheader
time	SC_y	SC_z	SC_x	AC_y	AC_z	AC_x	GH_y	GH_z	GH_yy	EL_x	PS_y
       0.0              -48.76          4.936          63.74          56.09         -8.891          5.472         -156.6          77.54         -121.2          48.65          138.5
   0.04602              -48.76          4.935          63.74          56.09         -8.889          5.469         -156.5          77.53         -121.2          48.66          138.5
   0.09204              -48.76          4.934          63.74          56.08         -8.887          5.467         -156.5          77.52         -121.2          48.66          138.5
    0.1381              -48.76          4.932          63.74          56.08         -8.884          5.464         -156.4          77.51         -121.2          48.66          138.5
    0.1841              -48.76          4.931          63.74          56.08         -8.882          5.461         -156.4          77.49         -121.3          48.67          138.5
    0.2301              -48.76          4.929          63.74          56.07         -8.879          5.458         -156.3          77.48         -121.3          48.67          138.5
    0.2761              -48.76          4.927          63.74          56.07         -8.876          5.454         -156.3          77.46         -121.3          48.68          138.4
    0.3221              -48.76          4.926          63.74          56.06         -8.873          5.451         -156.2          77.45         -121.3          48.68          138.4
    0.3681              -48.75          4.924          63.74          56.06          -8.87          5.447         -156.1          77.43         -121.3          48.69          138.4
    0.4142              -48.75          4.922          63.74          56.05         -8.866          5.443         -156.1          77.41         -121.3           48.7          138.4
    0.4602              -48.75          4.919          63.73          56.04         -8.862          5.438         -156.0          77.39         -121.3           48.7          138.4
    0.5062              -48.75          4.917          63.73          56.04         -8.858          5.433         -155.9          77.37         -121.3          48.71          138.4
    0.5522              -48.75          4.914          63.73          56.03         -8.854          5.428         -155.8          77.35         -121.4          48.72          138.4
    0.5982              -48.75          4.912          63.73          56.02         -8.849          5.422         -155.7          77.32         -121.4          48.73          138.4
    0.6443              -48.75          4.909          63.73          56.01         -8.844          5.416         -155.6           77.3         -121.4          48.74          138.4
    0.6903              -48.74          4.905          63.73           56.0         -8.838          5.409         -155.5          77.27         -121.4          48.75          138.4
    0.7363              -48.74          4.902          63.73          55.99         -8.832          5.402         -155.4          77.23         -121.4          48.76          138.4
    0.7823              -48.74          4.898          63.73          55.98         -8.826          5.394         -155.2           77.2         -121.5          48.77          138.4
    0.8283              -48.74          4.894          63.73          55.97         -8.818          5.386         -155.1          77.16         -121.5          48.78          138.3
    0.8743              -48.74          4.889          63.72          55.96          -8.81          5.376         -154.9          77.12         -121.5           48.8          138.3
    0.9204              -48.73          4.884          63.72          55.94         -8.802          5.366         -154.7          77.08         -121.6          48.81          138.3
    0.9664              -48.73          4.878          63.72          55.93         -8.792          5.354         -154.5          77.03         -121.6          48.83          138.3
     1.012              -48.73          4.872          63.72          55.91         -8.781          5.342         -154.3          76.97         -121.6          48.85          138.3
     1.058              -48.72          4.865          63.72          55.89          -8.77          5.328         -154.1          76.91         -121.7          48.87          138.3
     1.104              -48.72          4.858          63.71          55.87         -8.756          5.312         -153.8          76.84         -121.7          48.89          138.2
      1.15              -48.71          4.849          63.71          55.84         -8.742          5.295         -153.5          76.77         -121.8          48.92          138.2
     1.196              -48.71          4.839          63.71          55.82         -8.725          5.276         -153.2          76.68         -121.9          48.95          138.2
     1.242               -48.7          4.829           63.7          55.79         -8.707          5.254         -152.8          76.58         -121.9          48.98          138.2
     1.289               -48.7          4.817           63.7          55.75         -8.686          5.229         -152.4          76.48         -122.0          49.02          138.1
     1.335              -48.69          4.803          63.69          55.71         -8.663          5.201         -151.9          76.35         -122.1          49.06          138.1
     1.381              -48.68          4.787          63.69          55.67         -8.636          5.169         -151.3          76.21         -122.2          49.11          138.0
     1.427              -48.67          4.769          63.68          55.62         -8.605          5.133         -150.7          76.05         -122.3          49.17          138.0
     1.473              -48.66          4.748          63.67          55.56         -8.569           5.09         -150.0          75.87         -122.4          49.23          137.9
     1.519              -48.64          4.724          63.67          55.49         -8.528          5.041         -149.1          75.65         -122.6           49.3          137.9
     1.565              -48.63          4.696          63.66          55.41         -8.479          4.984         -148.1           75.4         -122.8          49.39          137.8
     1.611              -48.61          4.663          63.64          55.31         -8.422          4.916         -146.9           75.1         -123.0          49.49          137.7
     1.657              -48.59          4.623          63.63           55.2         -8.354          4.835         -145.5          74.75         -123.3          49.62          137.6
     1.703              -48.56          4.575          63.61          55.06         -8.272          4.739         -143.9          74.33         -123.6          49.76          137.4
     1.749              -48.53          4.518          63.59           54.9         -8.174          4.622         -141.8          73.82         -124.0          49.94          137.2
     1.795              -48.49          4.448          63.57           54.7         -8.053          4.479         -139.4          73.19         -124.4          50.15          137.0
     1.841              -48.44          4.361          63.54          54.45         -7.904          4.303         -136.3          72.42         -125.0          50.42          136.8
     1.887              -48.38          4.253           63.5          54.15         -7.719          4.083         -132.5          71.45         -125.7          50.75          136.5
     1.933               -48.3          4.117          63.45          53.76         -7.485          3.807         -127.7          70.24         -126.6          51.17          136.1
